# xmcd
#
# Track frame offsets:
# 150
# 16680
# 31155
# 45553
# 67584
# 80614
# 91781
# 106710
# 122247
# 134632
# 154849
# 172819
# 191076
#
# Disc length: 2833 seconds
#
#
# Revision: 0
# Processed by: cddbd v1.5.2PL0 Copyright (c) Steve Scherf et al.
# Submitted via: Nero 7, 11, 10, 0 
#
DISCID=950b0f0d
DTITLE=Lightnin' Moe - Take It Easy Baby
DYEAR=1999
DGENRE=Blues
TTITLE0=Take It Easy Baby
TTITLE1=I'm Your Boogie Boy
TTITLE2=Ain't Got The Time
TTITLE3=Chicago City
TTITLE4=Greazeball
TTITLE5=Leave My Girl Alone
TTITLE6=Sweet Love
TTITLE7=West Helena Woman
TTITLE8=I'm Goin' Down Town
TTITLE9=Lonely Bedroom
TTITLE10=My Kind Of Baby
TTITLE11=I Don't Know
TTITLE12=Got To Find My Baby
EXTD=
EXTT0=Take It Easy Baby
EXTT1=I'm Your Boogie Boy
EXTT2=Ain't Got The Time
EXTT3=Chicago City
EXTT4=Greazeball
EXTT5=Leave My Girl Alone
EXTT6=Sweet Love
EXTT7=West Helena Woman
EXTT8=I'm Goin' Down Town
EXTT9=Lonely Bedroom
EXTT10=My Kind Of Baby
EXTT11=I Don't Know
EXTT12=Got To Find My Baby
PLAYORDER=
